<svg width="290" height="289" viewBox="0 0 290 289" fill="none" xmlns="http://www.w3.org/2000/svg">
<g clip-path="url(#clip0_9_232)">
<path d="M141.786 197.363C147.927 199.296 151.917 204.061 150.697 208.004C149.477 211.947 143.51 213.576 137.366 211.641C134.902 210.902 132.648 209.579 130.795 207.781L104.875 199.259L109.098 187.072L134.202 196.767C136.741 196.352 139.341 196.556 141.786 197.363Z" fill="#FFB6B6"/>
<path d="M86.2578 107.941C80.0773 107.203 74.3866 111.417 73.2352 117.588C69.1286 139.599 60.4065 187.196 61.5551 188.355C63.0504 189.864 118.877 206.46 118.877 206.46L125.357 192.378L88.4716 174.273L96.5611 121.629C97.5881 114.946 92.9143 108.737 86.2578 107.941Z" fill="#E6E6E6"/>
<path d="M153.515 220.258C147.523 222.62 141.457 221.414 139.968 217.566C138.479 213.718 142.13 208.685 148.125 206.324C150.507 205.347 153.086 204.96 155.647 205.195L181.163 195.512L185.412 207.691L159.806 215.943C158.081 217.868 155.924 219.347 153.515 220.258Z" fill="#A0616A"/>
<path d="M190.313 115.733C196.43 114.577 202.388 118.396 203.948 124.475C209.512 146.157 221.384 193.055 220.315 194.29C218.924 195.896 164.329 216.24 164.329 216.24L156.925 202.63L192.522 182.065L180.944 130.088C179.474 123.489 183.724 116.978 190.313 115.733Z" fill="#E6E6E6"/>
<path d="M81.8795 111.103L84.9197 91.9319L64.3985 83.4965L61.3583 112.637L81.8795 111.103Z" fill="#FFB6B6"/>
<path d="M201.733 114.121L198.693 94.9494L219.214 86.514L222.254 115.654L201.733 114.121Z" fill="#A0616A"/>
<path d="M76.6938 98.0947C88.2513 98.0947 97.6205 88.6416 97.6205 76.9807C97.6205 65.3197 88.2513 55.8666 76.6938 55.8666C65.1362 55.8666 55.767 65.3197 55.767 76.9807C55.767 88.6416 65.1362 98.0947 76.6938 98.0947Z" fill="#FFB6B6"/>
<path d="M75.0236 48.5943C75.6291 48.9509 76.4402 48.4113 76.6344 47.7315C76.8285 47.0518 76.6024 46.33 76.3781 45.6598L75.249 42.2856C74.4482 39.8925 73.5983 37.4158 71.8639 35.5944C69.2463 32.8453 65.0862 32.1459 61.3413 32.6526C56.5321 33.3032 51.7871 35.9307 49.5509 40.2755C47.3148 44.6203 48.2668 50.6829 52.3074 53.3936C46.5487 60.053 44.5413 67.4748 44.8583 76.3068C45.1752 85.1388 54.7146 93.2672 60.9355 99.489C62.3248 98.6393 63.5878 94.6573 62.8238 93.2108C62.0599 91.7642 63.1544 90.0883 62.2083 88.7559C61.2622 87.4235 60.4706 89.5451 61.4271 88.2202C62.0307 87.3842 59.6749 85.4609 60.5721 84.9605C64.9117 82.5403 66.355 77.0828 69.0805 72.9036C72.368 67.8627 77.9945 64.449 83.9488 63.8827C87.2289 63.5707 90.6933 64.1357 93.3818 66.057C96.0704 67.9783 97.8109 71.4116 97.1875 74.6756C98.8021 73.0215 99.6058 70.5974 99.3027 68.2961C98.9995 65.9947 97.5961 63.8666 95.6094 62.6954C96.8174 58.6647 95.7825 54.0283 92.9786 50.9092C90.1747 47.7901 78.8005 48.3213 74.707 49.1422" fill="#2F2E41"/>
<path d="M74.3878 64.005C68.9661 64.5955 65.0515 69.334 61.7459 73.7099C59.8406 76.2321 57.8449 79.0175 57.8927 82.1883C57.9411 85.3942 60.0655 88.1439 61.0808 91.1821C62.7403 96.148 61.1229 102.056 57.1725 105.459C61.0759 106.206 65.2957 103.253 65.9695 99.3028C66.754 94.7038 63.2987 90.2651 63.7079 85.6168C64.0684 81.5216 67.267 78.3699 69.9863 75.3079C72.7055 72.2459 75.2594 68.1828 74.0084 64.27" fill="#2F2E41"/>
<path d="M84.2504 107.888L60.5581 101.351L36.1338 111.409L25.6663 194.893L85.4808 196.904V183.439C85.4808 183.439 95.9484 170.25 93.9545 151.139L91.9607 132.028L84.2504 107.888Z" fill="#E6E6E6"/>
<path d="M95.2007 141.835L48.346 139.321L35.6354 175.782C35.6354 175.782 19.9341 197.659 17.4418 213.752C14.9495 229.845 16.4449 252.477 16.4449 252.477H91.4564L85.4809 183.439C85.4809 183.439 99.4317 152.899 97.8147 147.619C96.1976 142.338 95.2007 141.835 95.2007 141.835Z" fill="#3F3D56"/>
<path d="M59.312 101.602H47.8475V144.35H59.312V101.602Z" fill="#3F3D56"/>
<path d="M94.7023 111.157H83.2378V146.361H94.7023V111.157Z" fill="#3F3D56"/>
<path d="M198.365 111.912L222.057 105.374L246.482 115.432L256.949 198.916L197.135 200.928V187.462C197.135 187.462 191.016 173.695 196.885 155.414C202.618 137.56 190.655 136.052 190.655 136.052L198.365 111.912Z" fill="#E6E6E6"/>
<path d="M187.415 145.859L234.27 143.344L246.98 179.805C246.98 179.805 254.706 204.7 257.198 220.793C259.691 236.886 266.171 256.5 266.171 256.5H191.159L188.91 190.115L187.415 145.859Z" fill="#3F3D56"/>
<path d="M234.768 105.625H223.304V148.373H234.768V105.625Z" fill="#3F3D56"/>
<path d="M199.378 115.181H187.913V150.385H199.378V115.181Z" fill="#3F3D56"/>
<path d="M206.367 101.029C220.843 101.029 232.577 89.1893 232.577 74.5844C232.577 59.9794 220.843 48.1397 206.367 48.1397C191.892 48.1397 180.157 59.9794 180.157 74.5844C180.157 89.1893 191.892 101.029 206.367 101.029Z" fill="#A0616A"/>
<path d="M232.148 88.93C232.148 88.93 219.467 73.577 214.395 74.8564C209.323 76.1358 212.493 78.0549 212.493 78.0549L199.812 63.9813C199.812 63.9813 189.668 60.1431 180.157 72.2975C180.157 72.2975 174.451 62.0622 180.157 56.3048C185.864 50.5474 187.766 51.1872 189.034 47.9886C190.302 44.7901 199.178 42.2312 199.178 42.2312C199.178 42.2312 198.669 37.6273 201.46 39.9293C204.251 42.2312 211.22 42.2312 211.22 42.2312C211.22 42.2312 211.26 39.6724 214.096 42.2312C216.931 44.7901 220.101 43.5106 220.101 43.5106C220.101 43.5106 220.101 47.9382 222.321 47.9634C224.54 47.9886 228.344 44.7901 228.978 47.3489C229.612 49.9077 234.05 51.1871 234.684 58.8636C235.318 66.5401 232.148 88.93 232.148 88.93Z" fill="#2F2E41"/>
<path d="M134.94 128.4L155.233 167.106L152.451 168.59L132.159 129.885C131.864 129.323 132.077 128.625 132.634 128.328L133.398 127.92C133.955 127.623 134.646 127.838 134.94 128.4Z" fill="#3F3D56"/>
<path d="M168.748 181.733C163.585 180.39 158.184 182.768 155.593 187.47C152.349 193.357 148.643 198.187 149.884 186.676C151.251 174.004 143.882 163.769 149.673 160.679C155.463 157.589 161.443 166.981 170.854 175.485C179.576 183.366 174.546 183.242 168.748 181.733Z" fill="#3F3D56"/>
<path d="M138.865 136.23C144.718 133.534 150.84 134.395 152.54 138.153C154.24 141.912 150.874 147.143 145.019 149.839C142.695 150.948 140.141 151.48 137.572 151.389L112.632 162.497L107.715 150.578L132.823 140.893C134.439 138.874 136.511 137.275 138.865 136.23Z" fill="#FFB6B6"/>
<path d="M38.3624 107.03C33.2713 110.642 31.8214 117.613 35.046 122.983C46.5477 142.14 71.5374 183.458 73.1593 183.548C75.2709 183.664 127.823 158.43 127.823 158.43L123.334 143.581L83.889 154.936L55.0894 110.285C51.4334 104.617 43.8456 103.14 38.3624 107.03Z" fill="#E6E6E6"/>
<path d="M141.359 195.673L208.772 159.694L217.047 175.478C224.186 189.094 219.025 205.995 205.53 213.198L187.019 223.077C173.525 230.279 156.773 225.073 149.634 211.457L141.359 195.673Z" fill="#F97316"/>
<path d="M198.473 219.857C192.621 222.554 186.499 221.694 184.798 217.936C183.097 214.178 186.463 208.947 192.317 206.25C194.641 205.14 197.195 204.608 199.765 204.698L224.703 193.587L229.621 205.505L204.514 215.194C202.899 217.213 200.827 218.812 198.473 219.857Z" fill="#A0616A"/>
<path d="M249.194 113.473C255.374 112.735 261.065 116.949 262.217 123.12C266.323 145.131 275.045 192.728 273.897 193.887C272.401 195.396 216.574 211.992 216.574 211.992L210.094 197.91L246.98 179.805L238.891 127.161C237.864 120.478 242.538 114.269 249.194 113.473Z" fill="#E6E6E6"/>
</g>
<defs>
<clipPath id="clip0_9_232">
<rect width="258" height="224" fill="white" transform="translate(16 32.5)"/>
</clipPath>
</defs>
</svg>
