<svg width="105" height="170" viewBox="0 0 105 170" fill="none" xmlns="http://www.w3.org/2000/svg">
<path d="M31 0H41L58 3L61 8L63 11L83 15L88 20L87 27H78L61 25H56L59 27L60 50V85L58 91V98L60 102L62.5 103L65 102L67 98V91L65 85V34L68 30H76L79 33L80 48L81 92L89 82L92 79H100L104 83L105 89L99 98L87 112L78 123L71 130L63 132H19L11 127L6 119L5 113V36L9 32H16L20 37L21 46V80L19 91L19.5 92.5L21 96L22 91H23L24 96L25 91L27 96L28 90.5L27 88L24.5 80L25 31L27 26L30 24H36L40 28L41 36L42.2101 96L42.7101 99.5L44 102V99L45 27L50 24L13 19L0 17V9L4 6H27L31 0ZM37 6L38 9L52 10L50 7L47 6H37Z" fill="#F97316"/>
<path d="M15.372 163.34H15.202L12.193 159.668C11.6377 158.977 11.2637 158.455 11.071 158.104C10.8783 157.741 10.782 157.435 10.782 157.186C10.782 156.823 11.071 156.642 11.649 156.642C11.819 156.642 12.0513 156.653 12.346 156.676C12.652 156.699 12.907 156.721 13.111 156.744C13.1677 156.461 13.2017 156.138 13.213 155.775C13.2357 155.401 13.247 155.078 13.247 154.806C13.247 154.557 13.2413 154.353 13.23 154.194C13.23 154.024 13.2243 153.871 13.213 153.735H10.102L9.524 152.63V152.46H21.441L22.019 153.565V153.735H20.03L20.064 163.17H19.894L18.534 162.286L18.551 158.937C18.0863 159.107 17.599 159.192 17.089 159.192C16.7717 159.192 16.3637 159.13 15.865 159.005C15.3663 158.869 14.794 158.54 14.148 158.019C13.876 158.518 13.3943 158.835 12.703 158.971L16.239 162.626L15.372 163.34ZM14.42 157.339C14.556 157.418 14.7487 157.503 14.998 157.594C15.2587 157.673 15.5307 157.741 15.814 157.798C16.1087 157.855 16.3863 157.883 16.647 157.883C17.0437 157.883 17.4177 157.821 17.769 157.696C18.1203 157.56 18.3867 157.413 18.568 157.254L18.602 153.735H14.59C14.6127 153.95 14.624 154.188 14.624 154.449C14.6353 154.71 14.641 154.891 14.641 154.993C14.641 155.492 14.6183 155.945 14.573 156.353C14.539 156.761 14.488 157.09 14.42 157.339ZM29.0181 165.057L28.8311 165.788C27.4711 165.448 26.3774 165.034 25.5501 164.547C24.7228 164.06 24.1164 163.533 23.7311 162.966C23.3571 162.399 23.1701 161.827 23.1701 161.249C23.1701 160.671 23.3344 160.133 23.6631 159.634C23.3118 159.339 23.0058 158.977 22.7451 158.546C22.4958 158.104 22.3711 157.656 22.3711 157.203C22.3711 156.602 22.6148 156.115 23.1021 155.741C23.6008 155.367 24.3771 155.18 25.4311 155.18H27.7261V153.735H21.6401L21.0621 152.63V152.46H30.4801L31.0581 153.565V153.735H29.1201C29.1201 154.166 29.1201 154.619 29.1201 155.095C29.1314 155.56 29.1371 155.968 29.1371 156.319L28.9331 156.455H25.7371C25.0684 156.455 24.5471 156.563 24.1731 156.778C23.7991 156.993 23.6121 157.333 23.6121 157.798C23.6121 158.025 23.6688 158.251 23.7821 158.478C23.8954 158.693 24.0258 158.875 24.1731 159.022C24.5358 158.693 24.9551 158.433 25.4311 158.24C25.9184 158.047 26.4284 157.951 26.9611 157.951C27.4938 157.951 27.9414 158.042 28.3041 158.223C28.6781 158.393 28.9728 158.614 29.1881 158.886C29.4148 159.158 29.5791 159.441 29.6811 159.736C29.7831 160.031 29.8341 160.297 29.8341 160.535C29.8341 161.476 29.2391 162.195 28.0491 162.694L27.2501 161.555C27.6241 161.374 27.9471 161.153 28.2191 160.892C28.5024 160.62 28.6441 160.286 28.6441 159.889C28.6441 159.56 28.5308 159.322 28.3041 159.175C28.0774 159.016 27.7658 158.937 27.3691 158.937C26.8364 158.937 26.3548 159.067 25.9241 159.328C25.5048 159.577 25.1704 159.906 24.9211 160.314C24.6831 160.711 24.5641 161.13 24.5641 161.572C24.5641 161.969 24.6944 162.382 24.9551 162.813C25.2158 163.232 25.6691 163.635 26.3151 164.02C26.9724 164.405 27.8734 164.751 29.0181 165.057ZM35.6009 153.735H33.6119L33.6459 163.255H33.4759L32.1159 162.371L32.1839 153.735H30.6879L30.1099 152.63V152.46H35.0229L35.6009 153.565V153.735ZM40.0312 160.688C39.3625 160.688 38.7278 160.512 38.1272 160.161C37.5378 159.798 37.0335 159.317 36.6142 158.716C36.2062 158.115 35.9342 157.441 35.7982 156.693C36.6822 156.478 37.3282 156.245 37.7362 155.996C38.1555 155.735 38.3652 155.412 38.3652 155.027C38.3652 154.88 38.3255 154.704 38.2462 154.5C38.1782 154.296 38.0535 154.041 37.8722 153.735H35.2202L34.6422 152.63V152.46H50.0102L50.5882 153.565V153.735H48.5992L48.6332 163.17H48.4632L47.1032 162.286L47.1202 160.076C46.7802 160.303 46.4402 160.461 46.1002 160.552C45.7602 160.643 45.4372 160.688 45.1312 160.688C44.4625 160.688 43.8335 160.507 43.2442 160.144C42.9948 159.997 42.7625 159.832 42.5472 159.651C42.1618 160.014 41.7595 160.274 41.3402 160.433C40.8755 160.603 40.4392 160.688 40.0312 160.688ZM41.6972 158.665C41.3005 158.076 41.0342 157.418 40.8982 156.693C41.7822 156.478 42.4282 156.245 42.8362 155.996C43.2555 155.735 43.4652 155.412 43.4652 155.027C43.4652 154.88 43.4255 154.693 43.3462 154.466C43.2782 154.239 43.1535 153.996 42.9722 153.735H38.8242C39.0848 154.188 39.2775 154.574 39.4022 154.891C39.5268 155.197 39.5892 155.486 39.5892 155.758C39.5892 156.189 39.4078 156.568 39.0452 156.897C38.6938 157.226 38.1045 157.503 37.2772 157.73C37.2885 158.07 37.3848 158.387 37.5662 158.682C37.7588 158.965 38.0082 159.192 38.3142 159.362C38.6315 159.532 38.9828 159.617 39.3682 159.617C39.7648 159.617 40.1898 159.515 40.6432 159.311C40.9832 159.152 41.3345 158.937 41.6972 158.665ZM47.1712 153.735H43.9072C44.4285 154.528 44.6892 155.203 44.6892 155.758C44.6892 156.189 44.5078 156.568 44.1452 156.897C43.7938 157.226 43.2045 157.503 42.3772 157.73C42.3885 158.07 42.4848 158.387 42.6662 158.682C42.8588 158.965 43.1082 159.192 43.4142 159.362C43.7315 159.532 44.0828 159.617 44.4682 159.617C44.8535 159.617 45.2672 159.521 45.7092 159.328C46.1512 159.135 46.6272 158.829 47.1372 158.41L47.1712 153.735ZM57.7214 157.73H58.9114C58.9681 157.197 59.0077 156.761 59.0304 156.421C59.0531 156.081 59.0644 155.73 59.0644 155.367C59.0644 154.608 58.9624 154.098 58.7584 153.837C58.5544 153.565 58.2541 153.429 57.8574 153.429C57.5741 153.429 57.3191 153.514 57.0924 153.684C56.8657 153.854 56.7524 154.086 56.7524 154.381C56.7524 154.676 56.8714 154.919 57.1094 155.112C57.3474 155.305 57.5911 155.469 57.8404 155.605V155.792C57.7271 155.803 57.6421 155.815 57.5854 155.826C57.5401 155.826 57.5117 155.826 57.5004 155.826C56.8431 155.826 56.3331 155.628 55.9704 155.231C55.6077 154.834 55.4264 154.375 55.4264 153.854C55.4264 153.503 55.5171 153.208 55.6984 152.97C55.8797 152.732 56.1064 152.551 56.3784 152.426C56.6617 152.301 56.9451 152.239 57.2284 152.239C57.6591 152.239 58.0671 152.347 58.4524 152.562C58.8377 152.766 59.1777 153.044 59.4724 153.395C59.7784 153.746 60.0164 154.132 60.1864 154.551C60.3564 154.97 60.4414 155.384 60.4414 155.792C60.4414 156.087 60.4357 156.41 60.4244 156.761C60.4131 157.112 60.4017 157.435 60.3904 157.73H63.7224L63.7564 153.735H61.3764L60.7984 152.63V152.46H66.5954L67.1734 153.565V153.735H65.1844L65.2184 163.17H65.0484L63.6884 162.286L63.7054 159.005H60.2714C60.2034 159.606 60.1354 160.031 60.0674 160.28C60.0107 160.529 59.8747 160.654 59.6594 160.654C59.4781 160.654 59.2514 160.569 58.9794 160.399C58.7187 160.218 58.4581 159.991 58.1974 159.719C57.9367 159.447 57.7214 159.169 57.5514 158.886C57.3814 158.603 57.2964 158.353 57.2964 158.138C57.2964 158.025 57.3304 157.928 57.3984 157.849C57.4664 157.77 57.5741 157.73 57.7214 157.73ZM71.7093 153.735H69.7203L69.7543 163.255H69.5843L68.2243 162.371L68.2923 153.735H66.7963L66.2183 152.63V152.46H68.4793C67.992 151.621 67.5783 150.958 67.2383 150.471C66.8643 149.961 66.5357 149.604 66.2523 149.4C65.969 149.185 65.6687 149.077 65.3513 149.077C65.17 149.077 64.9207 149.094 64.6033 149.128C64.2747 149.162 63.98 149.207 63.7193 149.264L62.9373 147.819L62.9543 147.7C63.3963 147.621 63.776 147.57 64.0933 147.547C64.4107 147.524 64.6203 147.513 64.7223 147.513C65.3003 147.513 65.8387 147.728 66.3373 148.159C66.836 148.59 67.3403 149.19 67.8503 149.961C68.3263 150.686 68.842 151.519 69.3973 152.46H71.1313L71.7093 153.565V153.735ZM76.7516 161.555C76.1736 161.555 75.6352 161.413 75.1366 161.13C74.6492 160.835 74.1959 160.444 73.7766 159.957C73.3572 159.458 72.9662 158.897 72.6036 158.274C72.2522 157.651 71.9179 156.999 71.6006 156.319L72.2976 156.013C72.8869 157.248 73.5102 158.251 74.1676 159.022C74.8249 159.793 75.5332 160.178 76.2926 160.178C76.7572 160.178 77.1199 160.048 77.3806 159.787C77.6412 159.515 77.7716 159.192 77.7716 158.818C77.7716 158.455 77.6299 158.104 77.3466 157.764C77.0746 157.413 76.6609 157.112 76.1056 156.863L75.6466 155.877V155.69H80.7636L80.7806 153.735H71.3286L70.7506 152.63V152.46H83.6196L84.1976 153.565V153.735H82.2086L82.2426 163.17H82.0726L80.7126 162.286L80.7466 156.965H77.7376C78.1909 157.43 78.5309 157.855 78.7576 158.24C78.9956 158.625 79.1146 159.033 79.1146 159.464C79.1146 159.906 79.0012 160.286 78.7746 160.603C78.5592 160.909 78.2702 161.147 77.9076 161.317C77.5562 161.476 77.1709 161.555 76.7516 161.555ZM93.8935 153.735H91.9045L91.9385 163.17H91.7685L90.4085 162.286L90.4425 158.019H87.4505C87.4505 158.676 87.4165 159.135 87.3485 159.396C87.2805 159.657 87.1162 159.787 86.8555 159.787C86.6175 159.787 86.3625 159.713 86.0905 159.566C85.8185 159.419 85.5635 159.226 85.3255 158.988C85.0989 158.75 84.9119 158.489 84.7645 158.206C84.6172 157.923 84.5435 157.651 84.5435 157.39C84.5435 157.073 84.6682 156.88 84.9175 156.812C85.1782 156.733 85.5295 156.693 85.9715 156.693C86.1755 156.693 86.5099 156.699 86.9745 156.71C87.4392 156.71 87.9719 156.721 88.5725 156.744C89.1845 156.755 89.8079 156.767 90.4425 156.778L90.4765 153.735H83.8295L83.2515 152.63V152.46H93.3155L93.8935 153.565V153.735Z" fill="#F97316"/>
</svg>
